<svg width="28" height="30" viewBox="0 0 25 25" fill="none" xmlns="http://www.w3.org/2000/svg">
<path d="M3.125 6.25059C3.125 6.04339 3.20731 5.84468 3.35382 5.69817C3.50034 5.55165 3.69905 5.46935 3.90625 5.46935H21.0938C21.301 5.46935 21.4997 5.55165 21.6462 5.69817C21.7927 5.84468 21.875 6.04339 21.875 6.25059C21.875 6.4578 21.7927 6.65651 21.6462 6.80302C21.4997 6.94954 21.301 7.03184 21.0938 7.03184H3.90625C3.69905 7.03184 3.50034 6.94954 3.35382 6.80302C3.20731 6.65651 3.125 6.4578 3.125 6.25059ZM3.90625 13.2818H21.0938C21.301 13.2818 21.4997 13.1995 21.6462 13.053C21.7927 12.9065 21.875 12.7078 21.875 12.5006C21.875 12.2934 21.7927 12.0947 21.6462 11.9482C21.4997 11.8017 21.301 11.7193 21.0938 11.7193H3.90625C3.69905 11.7193 3.50034 11.8017 3.35382 11.9482C3.20731 12.0947 3.125 12.2934 3.125 12.5006C3.125 12.7078 3.20731 12.9065 3.35382 13.053C3.50034 13.1995 3.69905 13.2818 3.90625 13.2818ZM14.0625 17.9693H3.90625C3.69905 17.9693 3.50034 18.0517 3.35382 18.1982C3.20731 18.3447 3.125 18.5434 3.125 18.7506C3.125 18.9578 3.20731 19.1565 3.35382 19.303C3.50034 19.4495 3.69905 19.5318 3.90625 19.5318H14.0625C14.2697 19.5318 14.4684 19.4495 14.6149 19.303C14.7614 19.1565 14.8438 18.9578 14.8438 18.7506C14.8438 18.5434 14.7614 18.3447 14.6149 18.1982C14.4684 18.0517 14.2697 17.9693 14.0625 17.9693ZM22.6562 17.9693H21.0938V16.4068C21.0938 16.1996 21.0114 16.0009 20.8649 15.8544C20.7184 15.7079 20.5197 15.6256 20.3125 15.6256C20.1053 15.6256 19.9066 15.7079 19.7601 15.8544C19.6136 16.0009 19.5312 16.1996 19.5312 16.4068V17.9693H17.9688C17.7615 17.9693 17.5628 18.0517 17.4163 18.1982C17.2698 18.3447 17.1875 18.5434 17.1875 18.7506C17.1875 18.9578 17.2698 19.1565 17.4163 19.303C17.5628 19.4495 17.7615 19.5318 17.9688 19.5318H19.5312V21.0943C19.5312 21.3015 19.6136 21.5003 19.7601 21.6468C19.9066 21.7933 20.1053 21.8756 20.3125 21.8756C20.5197 21.8756 20.7184 21.7933 20.8649 21.6468C21.0114 21.5003 21.0938 21.3015 21.0938 21.0943V19.5318H22.6562C22.8635 19.5318 23.0622 19.4495 23.2087 19.303C23.3552 19.1565 23.4375 18.9578 23.4375 18.7506C23.4375 18.5434 23.3552 18.3447 23.2087 18.1982C23.0622 18.0517 22.8635 17.9693 22.6562 17.9693Z" fill="white"/>
</svg>
