<svg width="34" height="36" viewBox="0 0 34 36" fill="none" xmlns="http://www.w3.org/2000/svg">
<path d="M28.56 25.92C24.14 25.92 23.528 21.384 22.984 17.352C22.372 12.888 21.828 8.64 17 8.64C12.172 8.64 11.628 12.888 11.016 17.352C10.472 21.384 9.86 25.92 5.44 25.92V24.48C8.568 24.48 9.044 21.672 9.656 17.208C10.268 12.744 11.016 7.2 17 7.2C22.984 7.2 23.732 12.744 24.344 17.208C24.956 21.672 25.432 24.48 28.56 24.48V25.92Z" fill="#E9E6E6"/>
<path d="M17 28.8C15.096 28.8 13.6 27.216 13.6 25.2H14.96C14.96 26.424 15.844 27.36 17 27.36C18.156 27.36 19.04 26.424 19.04 25.2H20.4C20.4 27.216 18.904 28.8 17 28.8Z" fill="#E9E6E6"/>
<path d="M5.44 24.48H28.56V25.92H5.44V24.48Z" fill="#E9E6E6"/>
<path d="M18.36 7.19999C18.36 7.99199 17.748 8.27999 17 8.27999C16.252 8.27999 15.64 7.99199 15.64 7.19999C15.64 6.40799 16.252 5.75999 17 5.75999C17.748 5.75999 18.36 6.40799 18.36 7.19999Z" fill="#E9E6E6"/>
</svg>
